<svg width="151" height="423" viewBox="0 0 151 423" fill="none" xmlns="http://www.w3.org/2000/svg" preserveAspectRatio="xMidYMid meet">
<path d="M147 1V266.5C147 277.546 138.046 286.5 127 286.5H26.8675C20.9319 286.5 15.303 289.136 11.5031 293.696L10.09 295.392C4.17174 302.494 3.89207 312.726 9.41354 320.141L11.5018 322.945C15.2761 328.014 21.2235 331 27.5427 331H127C138.046 331 147 339.954 147 351V419.5V422" stroke="#BBBBBF" stroke-width="1.5" stroke-linecap="round"/>
<circle cx="147" cy="181.5" r="4" fill="#BBBBBF"/>
<path d="M146.752 3.56177C147.185 5.02044 146.65 6.87871 146.599 8.35619C146.538 10.1252 146.439 12.0185 146.839 13.7583C147.065 14.7467 147.097 15.6522 147.097 16.6627C147.097 19.4758 147.183 22.2883 147.183 25.1032C147.183 26.636 147.461 28.1756 147.336 29.7062C147.245 30.8238 147.064 31.8953 146.858 32.9982C146.785 33.3893 146.58 34.1752 146.58 34.4815" stroke="#BBBBBF" stroke-width="1.5" stroke-linecap="round"/>
<path d="M146.659 34.793C146.676 35.2318 146.924 35.5879 146.924 36.0246C146.924 36.4474 147.189 36.8159 147.189 37.2218C147.189 38.1656 147.189 39.1093 147.189 40.053C147.189 40.6811 147.189 41.3092 147.189 41.9372C147.189 42.6364 147.454 43.3048 147.454 43.9784C147.454 45.0545 147.314 46.1223 147.282 47.1973C147.259 47.995 147.289 48.5948 147.022 49.3562C146.731 50.1878 146.836 51.2644 146.836 52.1335C146.836 52.5882 146.836 53.0429 146.836 53.4976C146.836 54.191 146.659 54.8559 146.659 55.5388C146.659 56.8775 146.717 58.1788 146.816 59.5132C146.871 60.254 146.836 61.0078 146.836 61.7507C146.836 62.0629 146.912 63.1666 147.012 62.261" stroke="#BBBBBF" stroke-width="1.5" stroke-linecap="round"/>
<path d="M146.659 62.0842C146.321 62.8464 146.599 64.0622 146.792 64.832C147.2 66.4632 147.189 68.1526 147.189 69.8222C147.189 72.9264 147.278 76.0322 147.278 79.1401C147.278 80.6036 147.417 82.1404 147.15 83.5857C146.894 84.9731 147.053 86.4042 146.875 87.8055C146.718 89.0424 146.591 90.248 146.571 91.4954C146.561 92.0794 146.483 92.6568 146.483 93.2422C146.483 93.6401 146.571 93.3353 146.571 93.0852" stroke="#BBBBBF" stroke-width="1.5" stroke-linecap="round"/>
<path d="M146.394 93.4385C146.416 94.0237 146.659 94.5337 146.659 95.1362C146.659 95.6956 146.659 96.255 146.659 96.8143C146.659 99.1598 146.659 101.505 146.659 103.851C146.659 105.44 147.101 107 147.101 108.591C147.101 109.634 147.101 110.678 147.101 111.721C147.101 112.559 147.101 113.396 147.101 114.233C147.101 114.77 147.101 115.306 147.101 115.843C147.101 116.328 147.135 115.968 147.189 115.696" stroke="#BBBBBF" stroke-width="1.5" stroke-linecap="round"/>
<path d="M147.101 116.579C147.101 113.608 147.149 122.521 147.273 125.49C147.335 126.983 147.277 128.489 147.277 129.984C147.277 131.217 147.277 132.451 147.277 133.684C147.277 133.965 147.446 134.948 147.101 134.861" stroke="#BBBBBF" stroke-width="1.5" stroke-linecap="round"/>
<path d="M146.836 134.95C147.125 135.347 147.079 136.24 147.145 136.706C147.246 137.428 147.277 138.108 147.277 138.836C147.277 140.382 146.995 141.847 146.855 143.38C146.728 144.778 146.571 146.176 146.571 147.585C146.571 148.224 146.571 148.864 146.571 149.503C146.571 149.96 146.571 151.191 146.571 149.964" stroke="#BBBBBF" stroke-width="1.5" stroke-linecap="round"/>
<path d="M146.483 150.583C146.551 151.261 146.971 151.905 147.018 152.609C147.116 154.082 147.101 155.557 147.101 157.04C147.101 159.899 146.896 162.762 146.728 165.617C146.575 168.211 146.571 170.821 146.571 173.419C146.571 174.269 146.571 175.12 146.571 175.97C146.571 176.325 146.571 176.68 146.571 177.035C146.571 177.607 146.744 176.233 146.748 176.196" stroke="#BBBBBF" stroke-width="1.5" stroke-linecap="round"/>
<path d="M147.012 185.381C147.012 188.906 146.924 192.424 146.924 195.946C146.924 197.693 146.984 199.452 146.88 201.196C146.816 202.272 146.836 203.351 146.836 204.429C146.836 205.018 146.845 205.607 146.831 206.196C146.819 206.683 146.805 207.174 146.747 207.658C146.711 207.96 146.705 207.994 146.571 207.815" stroke="#BBBBBF" stroke-width="1.5" stroke-linecap="round"/>
<path d="M146.394 208.08C146.394 211.805 146.57 215.521 146.743 219.238C146.851 221.557 146.743 223.888 146.836 226.211C146.95 229.079 146.892 231.942 146.944 234.812C146.991 237.412 147.013 245.215 147.013 242.614" stroke="#BBBBBF" stroke-width="1.5" stroke-linecap="round"/>
<path d="M147.013 223.713C147.013 224.942 146.836 226.141 146.836 227.374C146.836 228.631 146.836 229.889 146.836 231.147C146.836 234.581 146.91 238.024 146.767 241.456C146.702 243.031 146.924 244.585 146.924 246.157C146.924 248.81 146.924 251.463 146.924 254.115C146.924 255.955 146.924 257.796 146.924 259.636C146.924 260.208 146.924 260.78 146.924 261.353C146.924 262.019 146.923 262.684 146.905 263.35C146.896 263.658 146.94 263.976 146.856 264.272C146.805 264.449 146.854 263.905 146.836 263.723" stroke="#BBBBBF" stroke-width="1.5" stroke-linecap="round"/>
<path d="M146.748 264.606C147.058 264.683 146.836 268.619 146.836 269.076C146.836 270.574 146.789 271.991 146.365 273.443C146.069 274.455 145.661 275.418 145.266 276.392C145.026 276.982 144.591 277.605 144.235 278.139C143.563 279.148 142.672 280.017 141.846 280.896C140.719 282.096 139.218 282.948 137.719 283.595C136.99 283.91 136.192 284.087 135.447 284.385C134.356 284.822 133.195 285.106 132.067 285.425C131.313 285.639 130.413 285.864 129.633 285.892C128.661 285.926 127.693 286.036 126.718 285.96C125.438 285.86 124.155 285.626 122.866 285.661C120.009 285.739 117.17 286.155 114.314 286.24C112.964 286.28 111.629 286.486 110.281 286.51C109.273 286.528 108.273 286.598 107.263 286.598C106.695 286.598 106.128 286.598 105.56 286.598C104.879 286.598 104.184 286.635 103.504 286.569C102.899 286.51 102.868 286.307 102.41 286.068" stroke="#BBBBBF" stroke-width="1.5" stroke-linecap="round"/>
<path d="M101.792 286.245C102.16 286.318 101.071 286.467 100.698 286.51C100.193 286.567 99.7503 286.76 99.2404 286.78C97.5644 286.845 95.9068 286.863 94.2257 286.863C91.9897 286.863 89.7596 286.686 87.5279 286.686C84.5503 286.686 81.5722 286.775 78.5927 286.775C76.6545 286.775 74.7164 286.775 72.7782 286.775C71.2733 286.775 69.7451 286.852 68.2444 286.731C66.4857 286.589 64.7548 286.307 62.9892 286.225C62.0151 286.18 61.0496 286.156 60.0746 286.156C58.7477 286.156 57.4295 286.19 56.1148 286.382C55.2379 286.511 54.3537 286.514 53.4848 286.642C51.8322 286.885 50.1125 286.599 48.4456 286.775" stroke="#BBBBBF" stroke-width="1.5" stroke-linecap="round"/>
<path d="M48.3571 286.686C46.2952 286.981 44.1745 286.882 42.0863 286.863C41.2972 286.856 40.5136 286.775 39.7212 286.775C39.0332 286.775 38.3733 286.641 37.6898 286.608C36.9278 286.571 36.1627 286.639 35.4033 286.549C32.6147 286.218 29.7422 286.443 26.944 286.51C26.1443 286.529 25.3573 286.686 24.5544 286.686C23.407 286.686 22.394 286.975 21.2718 287.162C19.812 287.406 18.4169 287.981 17.1305 288.693C14.95 289.9 12.5308 291.042 10.7713 292.869C10.3094 293.349 9.94161 294.009 9.66239 294.606C9.37826 295.213 8.9757 295.738 8.62215 296.304C8.35191 296.736 8.15748 297.226 7.85179 297.633C7.31934 298.343 7.17531 298.863 6.88516 299.699C6.71695 300.184 6.68661 300.836 6.4043 301.259" stroke="#BBBBBF" stroke-width="1.5" stroke-linecap="round"/>
<path d="M6.05094 301.701C5.63261 302.956 5.523 304.184 5.41306 305.489C5.24761 307.454 4.97548 309.547 5.18735 311.525C5.29695 312.547 5.41726 313.515 5.65349 314.513C5.94391 315.739 6.66337 316.766 6.95379 317.972C7.04219 318.339 7.26938 318.653 7.42484 318.993C7.66824 319.524 7.88534 320.084 8.1952 320.582C8.80438 321.561 9.4497 322.67 10.2904 323.468C11.0221 324.162 12.0828 324.826 13.0284 325.205C13.4943 325.391 14.0193 325.451 14.4513 325.71C15.3502 326.249 16.1447 326.954 17.0715 327.442C18.0805 327.973 19.1355 328.14 20.2266 328.389C21.0435 328.576 21.8556 328.801 22.6456 329.081C23.108 329.245 23.5677 329.529 24.0588 329.591C25.7351 329.803 27.382 330.048 29.0784 330.146C31.9729 330.312 34.8592 330.924 37.7585 330.936C40.6372 330.947 43.4902 331.201 46.3747 331.201C47.5219 331.201 48.6725 331.227 49.8193 331.196C50.3823 331.18 50.3452 331.101 50.3885 330.582" stroke="#BBBBBF" stroke-width="1.5" stroke-linecap="round"/>
<path d="M50.9185 330.936C51.4314 331.251 52.7096 331.024 53.2835 331.024C54.1739 331.024 55.0762 330.983 55.9626 331.068C57.5033 331.216 59.0981 331.112 60.6437 331.112C63.4524 331.112 66.4196 331.385 69.1716 330.779C70.5781 330.469 72.1881 330.671 73.6221 330.671C75.1344 330.671 76.6417 330.582 78.1559 330.582C79.5083 330.582 80.81 330.229 82.1647 330.229C84.7882 330.229 87.4117 330.229 90.0352 330.229C93.5291 330.229 96.9958 330.406 100.487 330.406C104.147 330.406 107.808 330.378 111.468 330.406C113.546 330.421 115.62 330.825 117.685 331.034C118.812 331.148 119.911 331.386 121.046 331.446C121.716 331.481 122.387 331.445 123.058 331.47C125.02 331.544 127.016 331.631 128.975 331.77C129.869 331.833 130.795 331.899 131.679 332.045C132.131 332.119 132.596 332.26 133.058 332.26" stroke="#BBBBBF" stroke-width="1.5" stroke-linecap="round"/>
<path d="M133.146 332.437C133.762 332.467 134.45 332.722 135.001 332.987C135.456 333.206 135.975 333.295 136.419 333.546C136.958 333.852 137.529 334.052 138.004 334.474C138.207 334.654 138.353 334.881 138.534 335.082C138.942 335.535 139.483 335.844 139.937 336.245C140.591 336.822 141.325 337.646 141.733 338.414C141.994 338.906 142.071 339.536 142.42 339.974C142.861 340.527 143.338 341.013 143.735 341.608C144.473 342.716 145.688 343.996 145.688 345.421" stroke="#BBBBBF" stroke-width="1.5" stroke-linecap="round"/>
<path d="M146.129 345.774C146.968 347.883 147.454 349.939 147.454 352.211C147.454 354.835 147.454 357.458 147.454 360.082" stroke="#BBBBBF" stroke-width="1.5" stroke-linecap="round"/>
<path d="M147.277 360.082C147.277 361.517 147.307 362.956 147.277 364.39C147.261 365.209 147.072 366.075 146.973 366.893C146.816 368.193 146.711 369.494 146.669 370.803C146.662 371.022 146.738 371.485 146.571 371.652" stroke="#BBBBBF" stroke-width="1.5" stroke-linecap="round"/>
<path d="M146.394 371.829C146.744 373.226 147.101 374.557 147.101 376.034C147.101 378.42 147.101 380.806 147.101 383.193C147.101 384.872 147.101 386.552 147.101 388.232C147.101 389.606 147.067 391 146.836 392.359C146.701 393.154 146.839 394.168 146.483 394.881" stroke="#BBBBBF" stroke-width="1.5" stroke-linecap="round"/>
<path d="M146.561 395.582C146.561 396.194 146.71 396.757 146.8 397.357C146.914 398.115 147.034 398.78 147.066 399.556C147.125 401.006 147.129 402.45 147.129 403.901C147.129 404.546 147.291 405.166 147.291 405.829C147.291 406.412 147.303 406.996 147.273 407.578C147.221 408.577 146.999 409.565 146.971 410.561C146.932 412.006 146.787 413.359 146.516 414.788C146.334 415.749 146.399 416.743 146.399 417.717C146.399 418.173 146.339 419.842 146.805 419.997" stroke="#BBBBBF" stroke-width="1.5" stroke-linecap="round"/>
</svg>
