<svg width="151" height="349" viewBox="0 0 151 349" fill="none" xmlns="http://www.w3.org/2000/svg">
<path d="M3.99988 17.6187V82.1187C3.99988 93.1643 12.9542 102.119 23.9999 102.119H124.132C130.068 102.119 135.697 104.755 139.497 109.315L140.91 111.011C146.828 118.113 147.108 128.345 141.586 135.76L139.498 138.564C135.724 143.632 129.776 146.619 123.457 146.619H23.9999C12.9542 146.619 3.99988 155.573 3.99988 166.619V235.119V348" stroke="#BBBBBF" stroke-width="1.5" stroke-linecap="round"/>
<path d="M3.98747 1C3.98747 4.52433 4.07579 8.04279 4.07579 11.5643C4.07579 13.3113 4.01614 15.0705 4.11995 16.8145C4.18403 17.8911 4.16411 18.97 4.16411 20.0481C4.16411 20.6366 4.15501 21.2261 4.16902 21.8145C4.18061 22.3013 4.1945 22.7928 4.25243 23.2767C4.2886 23.5788 4.29519 23.6122 4.42908 23.4337" stroke="#BBBBBF" stroke-width="1.5" stroke-linecap="round"/>
<path d="M4.60583 23.6987C4.60583 27.4239 4.43035 31.1396 4.25745 34.8567C4.14958 37.1759 4.25675 39.507 4.16423 41.8292C4.04995 44.6975 4.10858 47.5607 4.05628 50.4308C4.00889 53.031 3.98758 60.8332 3.98758 58.2325" stroke="#BBBBBF" stroke-width="1.5" stroke-linecap="round"/>
<path d="M3.98755 39.3318C3.98755 40.5605 4.16419 41.7595 4.16419 42.9922C4.16419 44.25 4.16419 45.5078 4.16419 46.7655C4.16419 50.2001 4.08991 53.6431 4.23289 57.0746C4.29853 58.6499 4.07587 60.2037 4.07587 61.7753C4.07587 64.4283 4.07587 67.0812 4.07587 69.7341C4.07587 71.5741 4.07587 73.4142 4.07587 75.2542C4.07587 75.8267 4.07587 76.3991 4.07587 76.9716C4.07587 77.6373 4.07751 78.3031 4.0955 78.9686C4.10382 79.2764 4.05997 79.595 4.14457 79.8911C4.19492 80.0674 4.14595 79.5239 4.16419 79.3415" stroke="#BBBBBF" stroke-width="1.5" stroke-linecap="round"/>
<path d="M4.2522 80.2246C3.94208 80.3021 4.16388 84.2376 4.16388 84.6947C4.16388 86.1924 4.21051 87.6097 4.63493 89.0617C4.93067 90.0734 5.33879 91.0366 5.73404 92.0107C5.97346 92.6007 6.40849 93.2235 6.76446 93.7575C7.43726 94.7667 8.32765 95.6353 9.15406 96.5151C10.281 97.7147 11.7822 98.5671 13.2806 99.2138C14.0095 99.5283 14.8083 99.7061 15.5525 100.004C16.6436 100.44 17.8045 100.725 18.9332 101.044C19.687 101.257 20.5864 101.482 21.367 101.51C22.3388 101.545 23.307 101.655 24.2816 101.579C25.5617 101.479 26.8444 101.244 28.1334 101.28C30.9905 101.358 33.8299 101.773 36.6859 101.859C38.0361 101.899 39.3704 102.104 40.7193 102.128C41.7267 102.147 42.7265 102.217 43.7369 102.217C44.3045 102.217 44.872 102.217 45.4396 102.217C46.1213 102.217 46.8159 102.254 47.4955 102.187C48.1014 102.128 48.1316 101.926 48.5897 101.687" stroke="#BBBBBF" stroke-width="1.5" stroke-linecap="round"/>
<path d="M49.2082 101.863C48.8402 101.937 49.9296 102.086 50.3024 102.128C50.8071 102.186 51.2498 102.378 51.7597 102.398C53.4357 102.464 55.0933 102.482 56.7745 102.482C59.0105 102.482 61.2406 102.305 63.4722 102.305C66.4498 102.305 69.4279 102.393 72.4074 102.393C74.3456 102.393 76.2837 102.393 78.2219 102.393C79.7268 102.393 81.255 102.47 82.7558 102.349C84.5144 102.207 86.2453 101.925 88.0109 101.844C88.985 101.799 89.9506 101.775 90.9255 101.775C92.2524 101.775 93.5706 101.808 94.8853 102.001C95.7622 102.129 96.6464 102.133 97.5153 102.261C99.1679 102.504 100.888 102.218 102.555 102.393" stroke="#BBBBBF" stroke-width="1.5" stroke-linecap="round"/>
<path d="M102.643 102.305C104.705 102.6 106.825 102.501 108.914 102.482C109.703 102.474 110.486 102.393 111.279 102.393C111.967 102.393 112.627 102.259 113.31 102.227C114.072 102.19 114.837 102.258 115.597 102.168C118.385 101.837 121.258 102.062 124.056 102.128C124.856 102.147 125.643 102.305 126.445 102.305C127.593 102.305 128.606 102.594 129.728 102.781C131.188 103.024 132.583 103.6 133.869 104.312C136.05 105.519 138.469 106.66 140.229 108.488C140.69 108.967 141.058 109.628 141.337 110.225C141.622 110.832 142.024 111.357 142.378 111.922C142.648 112.355 142.842 112.844 143.148 113.252C143.681 113.962 143.825 114.481 144.115 115.318C144.283 115.803 144.313 116.455 144.596 116.878" stroke="#BBBBBF" stroke-width="1.5" stroke-linecap="round"/>
<path d="M144.949 117.32C145.367 118.575 145.477 119.802 145.587 121.108C145.752 123.073 146.024 125.166 145.813 127.143C145.703 128.166 145.583 129.134 145.346 130.131C145.056 131.358 144.337 132.384 144.046 133.591C143.958 133.958 143.73 134.272 143.575 134.611C143.332 135.143 143.115 135.703 142.805 136.201C142.195 137.18 141.55 138.288 140.709 139.086C139.978 139.781 138.917 140.445 137.972 140.823C137.506 141.01 136.981 141.069 136.549 141.329C135.65 141.868 134.855 142.573 133.928 143.061C132.919 143.592 131.864 143.758 130.773 144.008C129.956 144.194 129.144 144.419 128.354 144.7C127.892 144.864 127.432 145.148 126.941 145.21C125.265 145.422 123.618 145.667 121.921 145.764C119.027 145.931 116.141 146.543 113.241 146.554C110.363 146.566 107.51 146.819 104.625 146.819C103.478 146.819 102.327 146.846 101.181 146.814C100.618 146.799 100.655 146.72 100.611 146.201" stroke="#BBBBBF" stroke-width="1.5" stroke-linecap="round"/>
<path d="M100.081 146.554C99.5685 146.87 98.2903 146.643 97.7164 146.643C96.8259 146.643 95.9237 146.601 95.0373 146.687C93.4966 146.835 91.9018 146.731 90.3562 146.731C87.5475 146.731 84.5802 147.004 81.8283 146.397C80.4218 146.087 78.8117 146.289 77.3778 146.289C75.8655 146.289 74.3582 146.201 72.844 146.201C71.4916 146.201 70.1899 145.848 68.8351 145.848C66.2117 145.848 63.5882 145.848 60.9647 145.848C57.4708 145.848 54.0041 146.024 50.5133 146.024C46.8532 146.024 43.1919 145.997 39.5319 146.024C37.4537 146.04 35.3804 146.443 33.3151 146.652C32.1881 146.766 31.0887 147.004 29.9539 147.065C29.2835 147.1 28.6125 147.064 27.9422 147.089C25.9801 147.163 23.9839 147.25 22.0246 147.388C21.1307 147.452 20.2048 147.517 19.321 147.663C18.8693 147.738 18.4037 147.879 17.9422 147.879" stroke="#BBBBBF" stroke-width="1.5" stroke-linecap="round"/>
<path d="M17.8539 148.056C17.2381 148.085 16.5499 148.34 15.9991 148.605C15.5438 148.825 15.0244 148.914 14.5811 149.165C14.0419 149.47 13.4707 149.67 12.9962 150.092C12.7927 150.273 12.6471 150.5 12.4663 150.701C12.0583 151.154 11.5173 151.463 11.0629 151.864C10.4088 152.44 9.6745 153.265 9.26704 154.032C9.00554 154.525 8.9293 155.155 8.5801 155.593C8.13927 156.146 7.66208 156.631 7.26508 157.227C6.52659 158.334 5.31219 159.614 5.31219 161.039" stroke="#BBBBBF" stroke-width="1.5" stroke-linecap="round"/>
<path d="M4.87048 161.392C4.03178 163.502 3.54566 165.558 3.54566 167.83C3.54566 170.453 3.54566 173.077 3.54566 175.7" stroke="#BBBBBF" stroke-width="1.5" stroke-linecap="round"/>
<path d="M3.7225 175.701C3.7225 177.135 3.69323 178.574 3.7225 180.009C3.73922 180.828 3.92779 181.694 4.02672 182.511C4.18406 183.811 4.28938 185.113 4.33094 186.422C4.33789 186.641 4.26158 187.103 4.42908 187.271" stroke="#BBBBBF" stroke-width="1.5" stroke-linecap="round"/>
<path d="M4.60583 187.447C4.25641 188.845 3.89926 190.176 3.89926 191.652C3.89926 194.039 3.89926 196.425 3.89926 198.811C3.89926 200.491 3.89926 202.171 3.89926 203.851C3.89926 205.225 3.93306 206.619 4.16423 207.977C4.2996 208.773 4.16146 209.787 4.51751 210.499" stroke="#BBBBBF" stroke-width="1.5" stroke-linecap="round"/>
<path d="M4.43867 211.2C4.43867 211.813 4.28982 212.376 4.19983 212.976C4.0861 213.734 3.96547 214.399 3.93395 215.175C3.8751 216.624 3.87086 218.069 3.87086 219.519C3.87086 220.165 3.70863 220.784 3.70863 221.448C3.70863 222.031 3.6965 222.614 3.72666 223.196C3.77842 224.195 4.00129 225.183 4.02859 226.18C4.06817 227.624 4.21269 228.978 4.48373 230.407C4.66594 231.367 4.6009 232.361 4.6009 233.336C4.6009 233.791 4.66117 235.461 4.19532 235.616" stroke="#BBBBBF" stroke-width="1.5" stroke-linecap="round"/>
<path d="M4.10035 236.73C4.62909 236.796 4.03891 242.157 3.95547 242.815C3.73341 244.567 3.50766 246.097 3.50766 247.859C3.50766 249.848 3.44138 251.846 3.65254 253.826C3.73161 254.567 3.8782 255.295 3.95547 256.039C4.02436 256.702 4.1878 257.414 4.21889 258.067C4.27466 259.238 4.21889 260.423 4.21889 261.597C4.21889 264.81 4.23849 268.087 3.65254 271.251C3.21733 273.601 3.86328 276.038 3.86328 278.403C3.86328 281.264 4.22081 284.169 3.86328 287.03C3.7135 288.228 3.50766 289.324 3.50766 290.546C3.50766 291.118 3.77937 291.575 3.88962 292.114C4.03762 292.837 3.95293 293.573 4.07401 294.3C4.26895 295.47 4.10035 296.8 4.10035 297.988C4.10035 298.931 4.33743 299.819 4.33743 300.741" stroke="#BBBBBF" stroke-width="1.5" stroke-linecap="round"/>
<path d="M4.33753 301.807C4.62369 304.669 4.89214 307.815 4.24534 310.645C4.01048 311.672 4.33753 312.877 4.33753 313.931C4.33753 315.132 4.36332 316.279 4.16631 317.461C3.7415 320.01 3.98192 322.703 3.98192 325.271C3.98192 326.036 3.81018 326.904 3.56045 327.622C3.36516 328.184 3.50777 328.946 3.50777 329.545C3.50777 330.128 3.62723 330.766 3.68557 331.349C3.81743 332.668 3.74601 334.013 3.92265 335.32C4.07221 336.427 3.98192 337.596 3.98192 338.712C3.98192 339.953 4.3262 341.194 4.33753 342.452C4.34504 343.286 4.33753 344.121 4.33753 344.955" stroke="#BBBBBF" stroke-width="1.5" stroke-linecap="round"/>
<circle cx="4" cy="207" r="4" fill="#BBBBBF"/>
</svg>
