<svg width="9" height="165" viewBox="0 0 9 165" fill="none" xmlns="http://www.w3.org/2000/svg">
<path d="M3.73218 164C3.73218 164.414 4.06796 164.75 4.48218 164.75C4.89639 164.75 5.23218 164.414 5.23218 164H3.73218ZM3.73218 121.5V164H5.23218V121.5H3.73218Z" fill="#BBBBBF"/>
<path d="M5.23218 1C5.23218 0.585786 4.89639 0.25 4.48218 0.25C4.06796 0.25 3.73218 0.585786 3.73218 1H5.23218ZM0.482178 119C0.482178 121.209 2.27304 123 4.48218 123C6.69132 123 8.48218 121.209 8.48218 119C8.48218 116.791 6.69132 115 4.48218 115C2.27304 115 0.482178 116.791 0.482178 119ZM3.73218 1V119H5.23218V1H3.73218Z" fill="#040D24"/>
<path d="M4.44043 2.72876C4.44043 3.28808 4.62539 3.81898 4.62539 4.37284C4.62539 4.7145 4.62539 5.05617 4.62539 5.39783C4.62539 5.83415 4.53773 6.25579 4.53291 6.68997C4.52678 7.24127 4.53291 7.793 4.53291 8.34433C4.53291 8.82231 4.44043 9.28641 4.44043 9.76235C4.44043 10.1671 4.4476 10.5676 4.39419 10.9697C4.35971 11.2293 4.25547 11.4874 4.25547 11.7481C4.25547 12.1437 4.25547 12.5393 4.25547 12.9349C4.25547 13.5609 4.22229 14.2 4.25804 14.8256C4.2741 15.1067 4.34795 15.3725 4.34795 15.6554C4.34795 15.8681 4.34254 16.0704 4.39419 16.277" stroke="#040D24" stroke-width="1.5" stroke-linecap="round"/>
<path d="M4.48662 16.4619C4.48662 18.5876 4.44038 20.7068 4.44038 22.8327C4.44038 23.427 4.44038 24.0213 4.44038 24.6155C4.44038 25.3088 4.3479 25.9917 4.3479 26.6861C4.3479 27.5321 4.3479 28.3781 4.3479 29.2241" stroke="#040D24" stroke-width="1.5" stroke-linecap="round"/>
<path d="M4.4403 29.4553C4.4403 32.4397 4.39407 35.4207 4.39407 38.4053C4.39407 39.9363 4.30159 41.4705 4.30159 43.0036C4.30159 43.8378 4.22748 44.7141 4.41462 45.5314C4.53195 46.0438 4.66373 46.5525 4.71261 47.0778C4.74847 47.4633 4.71774 47.1792 4.71774 46.934" stroke="#040D24" stroke-width="1.5" stroke-linecap="round"/>
<path d="M4.62524 47.6738C4.62524 48.0112 4.62524 48.3486 4.62524 48.686C4.62524 49.1649 4.53276 49.6197 4.53276 50.0989C4.53276 51.2365 4.50023 52.3728 4.48652 53.5103C4.4646 55.33 4.39404 57.1413 4.39404 58.9615C4.39404 59.5232 4.39404 60.0849 4.39404 60.6467C4.39404 60.8522 4.39404 61.0577 4.39404 61.2632C4.39404 61.3694 4.39404 61.4756 4.39404 61.5817C4.39404 61.717 4.39404 61.3112 4.39404 61.1759" stroke="#040D24" stroke-width="1.5" stroke-linecap="round"/>
<path d="M4.39398 60.7136C4.39398 61.6264 4.39398 62.5392 4.39398 63.452C4.39398 65.0908 4.39957 66.7549 4.3015 68.3894C4.25094 69.232 4.02406 70.0572 4.02406 70.9044C4.02406 71.7517 4.00677 72.5996 4.12681 73.4399C4.2942 74.6116 4.34774 75.7758 4.34774 76.9592C4.34774 77.2042 4.32907 77.4576 4.35287 77.7016C4.36309 77.8064 4.39481 77.9106 4.41967 78.0125C4.49183 78.3084 4.57619 77.9081 4.62518 77.8224" stroke="#040D24" stroke-width="1.5" stroke-linecap="round"/>
<path d="M4.57905 78.2385C4.57905 78.8279 4.71777 79.3819 4.71777 79.9674C4.71777 81.1277 4.71777 82.2879 4.71777 83.4482C4.71777 84.6505 4.71777 85.8527 4.71777 87.0549C4.71777 87.9335 4.71777 88.812 4.71777 89.6906C4.71777 90.0035 4.71722 90.3097 4.68181 90.6205C4.63371 91.0428 4.54758 90.5739 4.48657 90.3996" stroke="#040D24" stroke-width="1.5" stroke-linecap="round"/>
<path d="M4.62535 91.093C4.77594 91.1495 4.67633 92.7331 4.66902 92.9195C4.6269 93.9935 4.25543 95.0458 4.25543 96.1255C4.25543 97.8549 4.16295 99.572 4.16295 101.302C4.16295 102.694 4.03231 104.073 4.02423 105.463C4.01638 106.813 4.02423 108.162 4.02423 109.512C4.02423 110.462 3.94786 111.45 4.07047 112.394C4.12199 112.791 4.24267 113.167 4.32736 113.555C4.391 113.847 4.33787 114.168 4.35048 114.465C4.35624 114.6 4.37985 114.733 4.39158 114.868C4.40174 114.985 4.52255 114.566 4.53287 114.537" stroke="#040D24" stroke-width="1.5" stroke-linecap="round"/>
<path d="M4.12337 123.948C3.88899 124.299 4.06059 125.163 4.06059 125.573C4.06059 126.16 4.06059 126.747 4.06059 127.335C4.06059 129.263 4.06059 131.192 4.06059 133.121C4.06059 134.66 4.03653 136.221 4.12686 137.757C4.18129 138.682 4.49825 139.585 4.61169 140.502C4.62601 140.618 4.62564 141.374 4.62564 141.213" stroke="#BBBBBF" stroke-width="1.5" stroke-linecap="round"/>
<path d="M4.37435 141.778C4.37435 143.289 4.24878 144.784 4.24878 146.299C4.24878 148.785 4.13786 151.299 4.26273 153.784C4.31095 154.744 4.4198 155.701 4.5627 156.651C4.61097 156.972 4.68508 157.296 4.68827 157.621C4.69764 158.576 4.68827 159.532 4.68827 160.488C4.68827 161.059 4.74441 161.584 4.81035 162.145C4.82673 162.284 4.79307 162.998 4.87662 162.497" stroke="#BBBBBF" stroke-width="1.5" stroke-linecap="round"/>
</svg>
